<?xml version="1.0" encoding="UTF-8" standalone="no"?>
<svg
   xmlns:dc="http://purl.org/dc/elements/1.1/"
   xmlns:cc="http://creativecommons.org/ns#"
   xmlns:rdf="http://www.w3.org/1999/02/22-rdf-syntax-ns#"
   xmlns:svg="http://www.w3.org/2000/svg"
   xmlns="http://www.w3.org/2000/svg"
   xmlns:sodipodi="http://sodipodi.sourceforge.net/DTD/sodipodi-0.dtd"
   xmlns:inkscape="http://www.inkscape.org/namespaces/inkscape"
   enable-background="new 0 0 128 128"
   height="76"
   id="Layer_1"
   version="1.1"
   viewBox="0 0 106 76"
   width="106"
   xml:space="preserve"
   sodipodi:docname="email.svg"
   inkscape:version="0.92.4 (unknown)"><metadata
     id="metadata15"><rdf:RDF><cc:Work
         rdf:about=""><dc:format>image/svg+xml</dc:format><dc:type
           rdf:resource="http://purl.org/dc/dcmitype/StillImage" /><dc:title></dc:title></cc:Work></rdf:RDF></metadata><defs
     id="defs13" /><sodipodi:namedview
     pagecolor="#ffffff"
     bordercolor="#666666"
     borderopacity="1"
     objecttolerance="10"
     gridtolerance="10"
     guidetolerance="10"
     inkscape:pageopacity="0"
     inkscape:pageshadow="2"
     inkscape:window-width="1366"
     inkscape:window-height="715"
     id="namedview11"
     showgrid="false"
     inkscape:zoom="5.2149125"
     inkscape:cx="45.792411"
     inkscape:cy="38.910795"
     inkscape:window-x="0"
     inkscape:window-y="0"
     inkscape:window-maximized="1"
     inkscape:current-layer="Layer_1" /><path
     d="m 96,4 c 3.3,0 6,2.7 6,6 v 56 c 0,3.3 -2.7,6 -6,6 H 10 C 6.7,72 4,69.3 4,66 V 10 C 4,6.7 6.7,4 10,4 H 96 M 96,0 H 10 C 4.5,0 0,4.5 0,10 v 56 c 0,5.5 4.5,10 10,10 h 86 c 5.5,0 10,-4.5 10,-10 V 10 C 106,4.5 101.5,0 96,0 Z"
     id="path2"
     inkscape:connector-curvature="0"
     style="fill:#ffffff;fill-opacity:1" /><path
     d="M 36.9,39.4 12.2,60.7 c -0.8,0.7 -0.9,2 -0.2,2.8 0.7,0.8 2,0.9 2.8,0.2 L 39.9,42 Z"
     id="path4"
     inkscape:connector-curvature="0"
     style="fill:#ffffff;fill-opacity:1" /><path
     d="m 69,39.5 -3,2.7 24.8,21.7 c 0.8,0.7 2.1,0.6 2.8,-0.2 0.7,-0.8 0.6,-2.1 -0.2,-2.8 z"
     id="path6"
     inkscape:connector-curvature="0"
     style="fill:#ffffff;fill-opacity:1" /><path
     d="m 93.5,12.7 c -0.7,-0.8 -2,-0.9 -2.8,-0.2 L 53,45.4 14.8,12.4 C 14,11.7 12.7,11.8 12,12.6 c -0.7,0.8 -0.6,2.1 0.2,2.8 l 39.5,34.1 c 0.4,0.3 0.8,0.5 1.3,0.5 0.5,0 0.9,-0.2 1.3,-0.5 0,0 0,0 0,0 l 39,-34.1 c 0.8,-0.6 0.9,-1.9 0.2,-2.7 z"
     id="path8"
     inkscape:connector-curvature="0"
     style="fill:#ffffff;fill-opacity:1" /></svg>