<?xml version="1.0" encoding="UTF-8" standalone="no"?>
<svg
   xmlns:dc="http://purl.org/dc/elements/1.1/"
   xmlns:cc="http://creativecommons.org/ns#"
   xmlns:rdf="http://www.w3.org/1999/02/22-rdf-syntax-ns#"
   xmlns:svg="http://www.w3.org/2000/svg"
   xmlns="http://www.w3.org/2000/svg"
   xmlns:sodipodi="http://sodipodi.sourceforge.net/DTD/sodipodi-0.dtd"
   xmlns:inkscape="http://www.inkscape.org/namespaces/inkscape"
   height="25.017851"
   width="19.982574"
   version="1.1"
   id="svg4"
   sodipodi:docname="github.svg"
   inkscape:version="0.92.4 (unknown)">
  <metadata
     id="metadata10">
    <rdf:RDF>
      <cc:Work
         rdf:about="">
        <dc:format>image/svg+xml</dc:format>
        <dc:type
           rdf:resource="http://purl.org/dc/dcmitype/StillImage" />
        <dc:title></dc:title>
      </cc:Work>
    </rdf:RDF>
  </metadata>
  <defs
     id="defs8" />
  <sodipodi:namedview
     pagecolor="#ffffff"
     bordercolor="#666666"
     borderopacity="1"
     objecttolerance="10"
     gridtolerance="10"
     guidetolerance="10"
     inkscape:pageopacity="0"
     inkscape:pageshadow="2"
     inkscape:window-width="1366"
     inkscape:window-height="715"
     id="namedview6"
     showgrid="false"
     showguides="true"
     inkscape:guide-bbox="true"
     inkscape:zoom="8"
     inkscape:cx="19.063362"
     inkscape:cy="4.2065239"
     inkscape:window-x="0"
     inkscape:window-y="0"
     inkscape:window-maximized="1"
     inkscape:current-layer="svg4">
    <sodipodi:guide
       position="8.646543,3.5731457"
       orientation="0,1"
       id="guide27"
       inkscape:locked="false" />
  </sodipodi:namedview>
  <path
     d="m 7.89978,24.851485 c -10.666,0 -5.333,0 0,0 z"
     id="path2"
     inkscape:connector-curvature="0"
     style="fill:#2b414d"
     sodipodi:nodetypes="cc" />
  <path
     inkscape:connector-curvature="0"
     style="fill:#ffffff;fill-opacity:1"
     d="m 9.964867,25.017851 c -12.0427247,-0.110911 -6.021362,-0.05545 0,0 z m 4.516926,-3.573146 c -0.092,-1.252 -0.229926,-3.040854 -0.235926,-3.668854 -0.04,-0.482 -0.092,-1.708 -1.256,-2.491 4.621,-0.387 6.82,-2.941 6.978,-6.3160002 0.132,-1.922 -0.632,-3.612 -1.989,-4.976 0.069,-1.4589998 -0.044,-3.18799981 -0.138,-3.94799981 -1.042,-0.3 -3.472,0.98300001 -4.151,1.53200001 -1.432,-0.556 -4.937,-0.75100001 -7.067,0 -1.51,-1.06200001 -3.229,-1.71800001 -4.166,-1.53500001 -0.8650002,1.91700001 -0.309,3.72899981 -0.14,3.94499981 -1.1140002,1.018 -2.66800024,2.271 -2.24600024,4.896 0.677,3.8490002 3.38500024,5.9250002 7.74500024,6.4330002 -0.93,0.19 -1.087,0.884 -1.165,1.185 -2.928,1.208 -3.765,-0.746 -4.135,-1.255 -1.2290002,-1.521 -2.33200024,-1.08 -2.40000024,-1.056 -0.066,0.024 -0.116000003,0.12 -0.109,0.166 0.062,0.328 0.731,0.661 0.764,0.688 0.90700004,0.676 1.24300024,1.897 1.45000024,2.245 1.301,2.139 4.325,1.252 4.354,1.27 0.002,0.187 0.01105,1.660854 -0.007,2.885854 7.913878,0 0,0 7.913878,0 z"
     id="path2-3"
     sodipodi:nodetypes="ccccccccccccccccccccccc" />
</svg>
