<?xml version="1.0" encoding="UTF-8" standalone="no"?>
<svg
   xmlns:dc="http://purl.org/dc/elements/1.1/"
   xmlns:cc="http://creativecommons.org/ns#"
   xmlns:rdf="http://www.w3.org/1999/02/22-rdf-syntax-ns#"
   xmlns:svg="http://www.w3.org/2000/svg"
   xmlns="http://www.w3.org/2000/svg"
   xmlns:sodipodi="http://sodipodi.sourceforge.net/DTD/sodipodi-0.dtd"
   xmlns:inkscape="http://www.inkscape.org/namespaces/inkscape"
   height="27.669306"
   version="1.1"
   viewBox="0 0 27.79327 27.669306"
   width="27.79327"
   id="svg13"
   sodipodi:docname="linkedin.svg"
   inkscape:version="0.92.4 (unknown)">
  <metadata
     id="metadata17">
    <rdf:RDF>
      <cc:Work
         rdf:about="">
        <dc:format>image/svg+xml</dc:format>
        <dc:type
           rdf:resource="http://purl.org/dc/dcmitype/StillImage" />
        <dc:title></dc:title>
      </cc:Work>
    </rdf:RDF>
  </metadata>
  <sodipodi:namedview
     pagecolor="#ffffff"
     bordercolor="#666666"
     borderopacity="1"
     objecttolerance="10"
     gridtolerance="10"
     guidetolerance="10"
     inkscape:pageopacity="0"
     inkscape:pageshadow="2"
     inkscape:window-width="1366"
     inkscape:window-height="715"
     id="namedview15"
     showgrid="false"
     inkscape:zoom="3.9333333"
     inkscape:cx="-23.04441"
     inkscape:cy="13.823152"
     inkscape:window-x="0"
     inkscape:window-y="0"
     inkscape:window-maximized="1"
     inkscape:current-layer="svg13" />
  <desc
     id="desc4" />
  <defs
     id="defs6" />
  <g
     id="black"
     style="fill:#ffffff;fill-rule:evenodd;stroke:none;stroke-width:1;fill-opacity:1"
     transform="translate(-16.052885,-16.153846)">
    <g
       id="slice"
       transform="translate(-600)"
       style="fill:#ffffff;fill-opacity:1" />
    <g
       id="linkedin"
       transform="translate(16,17)"
       style="fill:#ffffff;fill-opacity:1">
      <path
         d="M 5.8830754,26.823151 V 8.524339 H 0.22737004 v 18.298812 z m 0,-24.7849364 C 5.8493882,0.40065996 4.7580156,-0.84615385 2.9850543,-0.84615385 c -1.7734227,0 -2.93216968,1.24681381 -2.93216968,2.88436845 0,1.6019877 1.12505978,2.8848623 2.86433388,2.8848623 h 0.033687 c 1.8071099,0 2.9321697,-1.2828746 2.9321699,-2.8848623 z M 15.110042,26.823152 V 16.397373 c 0,-0.557972 0.04033,-1.115943 0.204405,-1.513705 0.448587,-1.11539 1.469509,-2.270004 3.183752,-2.270004 2.245697,0 3.654079,1.274495 3.654079,3.783709 v 10.425779 h 5.693876 V 16.118387 c 0,-5.734399 -3.061109,-8.402718 -7.144244,-8.402718 -3.347829,0 -4.817338,1.8716903 -5.633302,3.145633 l 0.04088,-2.4473897 H 9.425462 c 0.081762,1.7518097 0,18.4092397 0,18.4092397 z"
         id="path9"
         inkscape:connector-curvature="0"
         style="fill:#ffffff;fill-opacity:1" />
    </g>
  </g>
</svg>
