<?xml version="1.0" encoding="utf-8"?>
<!-- Generator: Adobe Illustrator 21.0.0, SVG Export Plug-In . SVG Version: 6.00 Build 0)  -->
<svg version="1.1" id="SVG-PHONE-MAIN" xmlns="http://www.w3.org/2000/svg" xmlns:xlink="http://www.w3.org/1999/xlink" x="0px" y="0px"
	 viewBox="0 0 360.00115 656.00002" style="enable-background:new 0 0 387.6 697.6;" xml:space="preserve">
	<defs>
        <filter id="darken">
		  <feColorMatrix
				  type="matrix"
				  values=".5   0   0   0   0
					 0  .5   0   0   0
					 0   0  .5   0   0
					 0   0   0   1   0 "/>
		</filter>
		<linearGradient id="wallpaper-gradient" x1="100%" y1="0%" x2="0%" y2="100%" >
<stop offset="0%" style="stop-color:rgb(255,255,255);stop-opacity:1" />
			<stop offset="100%" style="stop-color:rgb(0,128,128);stop-opacity:1" />
</linearGradient>
		<linearGradient id="wallpaper-gradient-dark" x1="50%" y1="0%" x2="50%" y2="100%" >
			<stop offset="0%" style="stop-color:rgb(48,109,153);stop-opacity:1" />
			<stop offset="74%" style="stop-color:rgb(44,62,80);stop-opacity:1" />
		</linearGradient>
		<linearGradient id='navigation-gradient' gradientUnits='userSpaceOnUse' x1='0' x2='0' y1='0' y2='100%'
						gradientTransform='rotate(240)'>
            <stop offset='0' stop-color='#043759'/>
			<stop offset='1' stop-color='#112266'/>
        </linearGradient>
      </defs>
<style type="text/css">
	.st0{fill:none;}
	.st1{fill:#2F2E41;}
	.st2{fill:#FFFFFF;}
	.st3{fill:#E6E6E6;}
	.st4{fill:#94c7e9;}
</style>
<g id="Group_19" transform="translate(-183.849,-116.699)">
	<g id="Group_18" transform="translate(94.149,-64.901)">
		<path id="Path_102" class="st0" d="M151.5,379"/>
		<path id="wallpaper_1_" class="st2" d="m 449.7,815.5 c 0,7.9 -6.4,14.4 -14.3,14.4 l -329.8,0.8 c -7.9,0 -14.4,-6.4 -14.4,-14.3 L 91,719.4 89.7,196.8 c 0,-7.9 6.4,-14.4 14.3,-14.4 138.04363,-0.29588 250.65995,-0.57577 329.8,-0.8 7.9,0 14.4,6.4 14.4,14.3 l 1.3,523.4 z"/>
		<path id="bottom-bar" class="st3" d="M449.7,822.1c0.1,8-6.3,14.6-14.3,14.7l-329.9,0.8c-8-0.1-14.4-6.6-14.4-14.6l-0.2-99h358.5
			L449.7,822.1z"/>
		<g id="Group_11_1_" transform="translate(386.852 271.864)">
			<g id="SVG-ABOUT-ME">
				<path id="background_13_" class="st3" d="M-267.3,211.1h46.9c5.8,0,10.5,4.7,10.5,10.5v46.9c0,5.8-4.7,10.5-10.5,10.5h-46.9
					c-5.8,0-10.5-4.7-10.5-10.5v-46.9C-277.8,215.8-273.1,211.1-267.3,211.1z"/>
				<path id="image_13_" d="M-243.8,245.2c6.9,0,12.5-5.6,12.5-12.5s-5.6-12.5-12.5-12.5c-6.9,0-12.5,5.6-12.5,12.5
					S-250.7,245.2-243.8,245.2z M-235,248.4h-1.6c-2.2,1-4.6,1.6-7.1,1.6c-2.5,0-5-0.6-7.1-1.6h-1.6c-7.3,0-13.2,5.9-13.2,13.2v4.1
					c0,2.6,2.1,4.7,4.7,4.7h34.5c2.6,0,4.7-2.1,4.7-4.7v-4.1C-221.9,254.3-227.8,248.4-235,248.4z"/>
			</g>
			<g id="SVG-PROJECTS">
				<path id="background_12_" class="st3" d="M-183.4,211.1h46.9c5.8,0,10.5,4.7,10.5,10.5v46.9c0,5.8-4.7,10.5-10.5,10.5h-46.9
					c-5.8,0-10.5-4.7-10.5-10.5v-46.9C-193.9,215.8-189.2,211.1-183.4,211.1z"/>
				<path id="image_12_" d="M-141.1,222.4h-28.8c-2.4,0-4.3,1.9-4.3,4.3v4.3h-4.3c-2.4,0-4.3,1.9-4.3,4.3v28.8
					c0,2.4,1.9,4.3,4.3,4.3h28.8c2.4,0,4.3-1.9,4.3-4.3v-4.3h4.3c2.4,0,4.3-1.9,4.3-4.3v-28.8C-136.8,224.3-138.7,222.4-141.1,222.4
					z M-149.7,264.2h-28.8v-18.7h28.8V264.2z M-141.1,255.5h-4.3v-20.2c0-2.4-1.9-4.3-4.3-4.3h-20.2v-4.3h28.8V255.5z"/>
			</g>
			<g id="SVG-TECHNOLOGIES">
				<path id="background_11_" class="st3" d="M-99.6,211.1h46.9c5.8,0,10.5,4.7,10.5,10.5v46.9c0,5.8-4.7,10.5-10.5,10.5h-46.9
					c-5.8,0-10.5-4.7-10.5-10.5v-46.9C-110.1,215.8-105.4,211.1-99.6,211.1z"/>
				<path id="image_11_" d="M-79.6,268.4l-5.5-1.6c-0.6-0.2-0.9-0.8-0.7-1.3l12.3-42.3c0.2-0.6,0.8-0.9,1.3-0.7l5.5,1.6
					c0.6,0.2,0.9,0.8,0.7,1.3l-12.3,42.3C-78.4,268.2-79,268.6-79.6,268.4z M-89.9,258.3l3.9-4.2c0.4-0.4,0.4-1.1-0.1-1.5l-8.2-7.2
					l8.2-7.2c0.5-0.4,0.5-1.1,0.1-1.5l-3.9-4.2c-0.4-0.4-1.1-0.5-1.5,0l-13,12.1c-0.5,0.4-0.5,1.2,0,1.6l13,12.2
					C-90.9,258.7-90.3,258.7-89.9,258.3L-89.9,258.3z M-60.4,258.3l13-12.2c0.5-0.4,0.5-1.2,0-1.6l-13-12.2c-0.4-0.4-1.1-0.4-1.5,0
					l-3.9,4.2c-0.4,0.4-0.4,1.1,0.1,1.5l8.2,7.2l-8.2,7.2c-0.5,0.4-0.5,1.1-0.1,1.5l3.9,4.2C-61.5,258.7-60.8,258.7-60.4,258.3
					L-60.4,258.3z"/>
			</g>
			<g id="SVG-DIPLOMA">
				<path id="background_10_" class="st3" d="M-15.7,211.1h46.9c5.8,0,10.5,4.7,10.5,10.5v46.9c0,5.8-4.7,10.5-10.5,10.5h-46.9
					c-5.8,0-10.5-4.7-10.5-10.5v-46.9C-26.2,215.8-21.5,211.1-15.7,211.1z"/>
				<path id="image_10_" d="M35.2,236L10,228.3c-1.4-0.4-2.8-0.4-4.2,0l-25.1,7.7c-2.1,0.7-2.1,3.5,0,4.1l4.4,1.3
					c-1,1.2-1.6,2.6-1.6,4.2c-0.9,0.5-1.5,1.4-1.5,2.5c0,1,0.5,1.8,1.2,2.3l-2.3,10.3c-0.2,0.9,0.5,1.8,1.4,1.8h5
					c0.9,0,1.6-0.9,1.4-1.8l-2.3-10.3c0.7-0.5,1.2-1.3,1.2-2.3c0-1-0.6-1.9-1.4-2.4c0.1-1.4,0.8-2.5,1.9-3.3l17.6,5.4
					c0.8,0.3,2.4,0.6,4.2,0l25.1-7.7C37.3,239.5,37.3,236.7,35.2,236L35.2,236z M10.9,250.6c-2.6,0.8-4.8,0.4-5.9,0l-13.1-4
					l-1.3,10.2c0,3.2,7.7,5.8,17.3,5.8s17.3-2.6,17.3-5.8l-1.3-10.2L10.9,250.6z"/>
			</g>
		</g>
		<g id="Group_14">
			<g id="SVG-ALANA">
				<path id="background_7_" class="st3" d="M371.5,595.9h46.9c5.8,0,10.5,4.7,10.5,10.5v46.9c0,5.8-4.7,10.5-10.5,10.5h-46.9
					c-5.8,0-10.5-4.7-10.5-10.5v-46.9C361,600.6,365.7,595.9,371.5,595.9z"/>
				<path id="image_7_" d="M395.2,626.4c-7.9,0-19.2,12.3-19.2,20c0,3.5,2.7,5.6,7.2,5.6c4.9,0,8.1-2.5,12-2.5c4,0,7.2,2.5,12,2.5
					c4.5,0,7.2-2.1,7.2-5.6C414.4,638.7,403.1,626.4,395.2,626.4z M380.5,625.2c-1-3.5-4.2-5.7-7.2-5c-2.9,0.7-4.4,4.1-3.4,7.5
					c1,3.5,4.2,5.7,7.2,5C380,632,381.5,628.6,380.5,625.2L380.5,625.2z M388.9,623.1c3.1-0.8,4.6-5,3.5-9.3
					c-1.2-4.3-4.7-7.2-7.7-6.4c-3.1,0.8-4.6,5-3.5,9.3C382.4,621,385.8,623.9,388.9,623.1z M417.1,620.1c-2.9-0.7-6.1,1.5-7.2,5
					c-1,3.5,0.5,6.8,3.4,7.5c2.9,0.7,6.1-1.5,7.2-5C421.5,624.2,420,620.8,417.1,620.1L417.1,620.1z M401.4,623.1
					c3.1,0.8,6.6-2,7.7-6.4c1.2-4.3-0.4-8.5-3.5-9.3s-6.6,2-7.7,6.4S398.3,622.3,401.4,623.1z"/>
			</g>
			<g id="SVG-WORK">
				<path id="background_8_" class="st3" d="M120,595.8h46.9c5.8,0,10.5,4.7,10.5,10.5v46.9c0,5.8-4.7,10.5-10.5,10.5H120
					c-5.8,0-10.5-4.7-10.5-10.5v-46.9C109.5,600.5,114.2,595.8,120,595.8z"/>
				<path id="image_8_" d="M150,637.7c0,0.9-0.7,1.6-1.6,1.6h-9.6c-0.9,0-1.6-0.7-1.6-1.6v-4.8H118v14.4c0,2.6,2.2,4.8,4.8,4.8h41.6
					c2.6,0,4.8-2.2,4.8-4.8v-14.4H150V637.7z M164.4,616.9h-8v-4.8c0-2.6-2.2-4.8-4.8-4.8h-16c-2.6,0-4.8,2.2-4.8,4.8v4.8h-8
					c-2.6,0-4.8,2.2-4.8,4.8v8h51.2v-8C169.2,619.2,166.9,616.9,164.4,616.9z M150,616.9h-12.8v-3.2H150V616.9z"/>
			</g>
			<g id="SVG-GAMES">
				<path id="background_9_" class="st3" d="M204,597.9h46.9c5.8,0,10.5,4.7,10.5,10.5v46.9c0,5.8-4.7,10.5-10.5,10.5H204
					c-5.8,0-10.5-4.7-10.5-10.5v-46.9C193.5,602.6,198.2,597.9,204,597.9z"/>
				<path id="image_9_" d="M241.6,615.5h-28.8c-8,0-14.4,6.4-14.4,14.4c0,8,6.4,14.4,14.4,14.4c3.9,0,7.6-1.6,10.3-4.3h8.2
					c5.6,5.7,14.7,5.8,20.4,0.2c5.7-5.6,5.8-14.7,0.2-20.4C249.2,617.1,245.5,615.6,241.6,615.5z M220.7,631c0,0.6-0.5,1.1-1.1,1.1
					H215v4.7c0,0.6-0.5,1.1-1.1,1.1h-2.2c-0.6,0-1.1-0.5-1.1-1.1v-4.7H206c-0.6,0-1.1-0.5-1.1-1.1v-2.2c0-0.6,0.5-1.1,1.1-1.1l0,0
					h4.7v-4.7c0-0.6,0.5-1.1,1.1-1.1h2.2c0.6,0,1.1,0.5,1.1,1.1v4.7h4.7c0.6,0,1.1,0.5,1.1,1.1l0,0V631z M240.2,637.9
					c-2,0-3.6-1.6-3.6-3.6c0-2,1.6-3.6,3.6-3.6c2,0,3.6,1.6,3.6,3.6C243.8,636.3,242.1,637.9,240.2,637.9z M245.9,629.2
					c-2,0-3.6-1.6-3.6-3.6s1.6-3.6,3.6-3.6s3.6,1.6,3.6,3.6S247.9,629.2,245.9,629.2z"/>
			</g>
			<g id="SVG-MOBILE-PROJECTS">
				<path id="Rectangle_58" class="st3" d="M287.6,595.9h46.9c5.8,0,10.5,4.7,10.5,10.5v46.9c0,5.8-4.7,10.5-10.5,10.5h-46.9
					c-5.8,0-10.5-4.7-10.5-10.5v-46.9C277.1,600.6,281.8,595.9,287.6,595.9z"/>
				<path d="M322.5,604.2h-22.4c-2.6,0-4.8,2.2-4.8,4.8v41.6c0,2.6,2.1,4.8,4.8,4.8h22.4c2.7,0,4.8-2.2,4.8-4.8V609
				C327.3,606.3,325.1,604.2,322.5,604.2z M311.3,652.2c-1.8,0-3.2-1.4-3.2-3.2c0-1.8,1.4-3.2,3.2-3.2c1.8,0,3.2,1.4,3.2,3.2
				C314.5,650.8,313,652.2,311.3,652.2z M322.5,641.4c0,0.7-0.5,1.2-1.2,1.2h-20c-0.7,0-1.2-0.5-1.2-1.2v-31.2
				c0-0.7,0.5-1.2,1.2-1.2h20c0.7,0,1.2,0.5,1.2,1.2V641.4z"/>
			</g>
		</g>
		<g id="Group_15" transform="translate(381.787 746.106)">
			<g id="LinkedIn">
				<path id="background" class="st4" d="M-248.5-0.7h49.6c5.8,0,10.5,4.7,10.5,10.5v49.6c0,5.8-4.7,10.5-10.5,10.5h-49.6
					c-5.8,0-10.5-4.7-10.5-10.5V9.8C-259,4-254.3-0.7-248.5-0.7z"/>
				<path id="image_1_" d="M-239.1,61.9h-11.5V25h11.5V61.9z M-244.9,19.9c-3.7,0-6.6-3-6.6-6.7c0-3.7,3-6.6,6.6-6.6
					c3.7,0,6.6,3,6.6,6.6C-238.2,16.9-241.2,19.9-244.9,19.9z M-196.2,61.9h-11.4v-18c0-4.3-0.1-9.8-6-9.8c-6,0-6.9,4.7-6.9,9.5
					v18.3h-11.5V25h11v5h0.2c1.5-2.9,5.3-6,10.9-6c11.6,0,13.7,7.6,13.7,17.6L-196.2,61.9L-196.2,61.9z"/>
			</g>
			<g id="Email">
				<path id="background_2_" class="st4" d="M-21.4-0.1h49.6c5.8,0,10.5,4.7,10.5,10.5V60c0,5.8-4.7,10.5-10.5,10.5h-49.6
					c-5.8,0-10.5-4.7-10.5-10.5V10.4C-31.9,4.6-27.2-0.1-21.4-0.1z"/>
				<path id="image_3_" d="M28,28.8c0.4-0.3,1,0,1,0.5v20.4c0,2.7-2.1,4.8-4.8,4.8h-41.6c-2.6,0-4.8-2.1-4.8-4.8V29.2
					c0-0.5,0.6-0.8,1-0.5c2.2,1.7,5.2,3.9,15.4,11.4c2.1,1.5,5.7,4.8,9.2,4.8c3.6,0,7.2-3.3,9.2-4.8C22.8,32.7,25.8,30.5,28,28.8z
					 M3.4,41.7c2.3,0,5.7-2.9,7.3-4.1C24,27.9,25,27.1,28.1,24.7c0.6-0.5,0.9-1.1,0.9-1.9v-1.9c0-2.7-2.1-4.8-4.8-4.8h-41.6
					c-2.6,0-4.8,2.1-4.8,4.8v1.9c0,0.7,0.3,1.4,0.9,1.9c3.1,2.4,4.1,3.2,17.3,12.9C-2.3,38.8,1.1,41.7,3.4,41.7L3.4,41.7z"/>
			</g>
			<g id="Github">
				<path id="background_1_" class="st4" d="M-136.5-0.1H-87c5.8,0,10.5,4.7,10.5,10.5V60c0,5.8-4.7,10.5-10.5,10.5h-49.6
					c-5.8,0-10.5-4.7-10.5-10.5V10.4C-147,4.6-142.3-0.1-136.5-0.1z"/>
				<path id="image_2_" d="M-120.9,52c0,0.2-0.3,0.4-0.6,0.4c-0.4,0-0.6-0.1-0.6-0.4c0-0.2,0.3-0.4,0.6-0.4
					C-121.2,51.5-120.9,51.7-120.9,52z M-124.5,51.5c-0.1,0.2,0.1,0.5,0.5,0.6c0.3,0.1,0.6,0,0.7-0.2s-0.1-0.5-0.5-0.6
					C-124.1,51.1-124.4,51.2-124.5,51.5L-124.5,51.5z M-119.5,51.3c-0.3,0.1-0.6,0.3-0.5,0.6c0,0.2,0.3,0.4,0.7,0.3
					c0.3-0.1,0.6-0.3,0.5-0.5C-118.8,51.4-119.1,51.2-119.5,51.3z M-112,7.8c-15.7,0-27.8,11.9-27.8,27.7c0,12.6,7.9,23.3,19.2,27.1
					c1.5,0.3,2-0.6,2-1.4c0-0.7,0-4.6,0-7c0,0-7.9,1.7-9.6-3.4c0,0-1.3-3.3-3.2-4.2c0,0-2.6-1.8,0.2-1.7c0,0,2.8,0.2,4.4,2.9
					c2.5,4.4,6.6,3.1,8.3,2.4c0.3-1.8,1-3.1,1.8-3.8c-6.3-0.7-12.7-1.6-12.7-12.5c0-3.1,0.9-4.7,2.7-6.7c-0.3-0.7-1.3-3.8,0.3-7.7
					c2.4-0.7,7.8,3.1,7.8,3.1c2.3-0.6,4.7-1,7.1-1s4.9,0.3,7.1,1c0,0,5.5-3.8,7.8-3.1c1.6,3.9,0.6,7,0.3,7.7c1.8,2,2.9,3.6,2.9,6.7
					c0,10.9-6.7,11.8-13,12.5c1,0.9,1.9,2.6,1.9,5.3c0,3.8,0,8.6,0,9.5c0,0.7,0.5,1.6,2,1.4c11.3-3.8,19-14.5,19-27.1
					C-83.5,19.8-96.3,7.8-112,7.8z M-128.7,46.9c-0.1,0.1-0.1,0.4,0.1,0.6c0.2,0.2,0.4,0.3,0.6,0.1c0.1-0.1,0.1-0.4-0.1-0.6
					C-128.3,46.9-128.6,46.8-128.7,46.9z M-130,46c-0.1,0.1,0,0.3,0.3,0.4c0.2,0.1,0.4,0.1,0.5-0.1c0.1-0.1,0-0.3-0.3-0.4
					C-129.7,45.9-129.9,45.9-130,46z M-126.3,50c-0.2,0.1-0.1,0.5,0.1,0.7c0.3,0.3,0.6,0.3,0.7,0.1c0.1-0.1,0.1-0.5-0.1-0.7
					C-125.8,49.9-126.1,49.9-126.3,50z M-127.6,48.4c-0.2,0.1-0.2,0.4,0,0.7s0.5,0.4,0.6,0.3c0.2-0.1,0.2-0.4,0-0.7
					C-127.1,48.3-127.4,48.2-127.6,48.4L-127.6,48.4z"/>
			</g>
		</g>
	</g>
</g>
</svg>
